<?xml version="1.0" encoding="utf-8"?>
<!-- Generator: Adobe Illustrator 23.0.1, SVG Export Plug-In . SVG Version: 6.00 Build 0)  -->
<svg version="1.1" id="Layer_1" xmlns="http://www.w3.org/2000/svg" xmlns:xlink="http://www.w3.org/1999/xlink" x="0px" y="0px"
	 viewBox="0 0 1920 1080" style="enable-background:new 0 0 1920 1080;" xml:space="preserve">
<style type="text/css">
	.st0{fill:#FFA300;}
	.st1{fill:#FFF200;}
	.st2{fill:#F4BA8E;}
	.st3{fill:#231F20;}
	.st4{fill:#F7D7C6;}
</style>
<g id="orange_fire">
	<path class="st0" d="M907.11,467.59c0.06,3.59-7.67-3.46-10.46-6.07c-1.39-1.3-5.41-6.43-3.81-7.65c-0.09,0.07-0.21,0.21-0.29,0.31
		c-0.15,0.13-0.32,0.31-0.54,0.55c-0.55,0.62-1.45,1.5-2.34,2.36c-1.13,1.11-2.5,2.23-3.97,3.23c-1.94,1.29-3.94,2.12-5.95,2.48
		c-2.25,0.39-4.71,0.05-7.33-1.01c-2.29-0.93-4.83-2.48-7.77-4.76c-2.31-1.8-4.71-3.95-7.54-6.76c-2.37-2.37-4.81-4.94-7.25-7.64
		c-1.72-1.87-3.41-3.8-5.05-5.67c-0.66-0.75-1.32-1.51-1.98-2.25c-2.27-2.61-4.53-5.19-6.71-7.68l-0.09-0.1
		c-2.13-2.45-4.3-4.9-6.46-7.28c-1.94-2.17-3.82-4.15-5.64-6.06l-0.37-0.39c-4-4.22-7.4-7.45-9.56-9.42
		c-0.87-0.8-1.64-1.46-2.25-1.99c-0.23-0.2-0.43-0.37-0.62-0.53l-0.57-0.48c-0.26-0.21-0.41-0.34-0.47-0.39l-0.55-0.41l0.21,0.32
		c-1.5-1.5-2.37-2.3-2.49-2.41l-0.5-0.44l0.27,0.53c0.12,0.24,1.1,1.95,2.68,4.6l2.28,3.83c1.4,2.35,3.05,5.12,4.89,8.19
		c0.88,1.5,1.81,3.07,2.77,4.71c0.63,1.07,1.28,2.17,1.94,3.3c0.79,1.36,1.6,2.76,2.43,4.19c0.89,1.55,1.81,3.12,2.75,4.73
		c1.68,2.92,3.49,6.14,5.36,9.56c1.81,3.35,3.57,6.63,5.2,9.9c1.6,3.18,3.17,6.52,4.66,9.94c1.64,3.85,2.79,6.92,3.62,9.67
		c1.05,3.52,1.61,6.41,1.69,8.85c0.08,2.97-0.57,5.2-1.92,6.55c-1.28,1.33-3.51,2.14-6.29,2.27c-2,0.08-4.17-0.04-6.64-0.39
		c-1.81-0.29-3.35-0.56-4.44-0.8c-0.61-0.14-1.06-0.23-1.32-0.28c-0.1-0.02-0.17-0.04-0.22-0.05l-0.29-0.07l0.09,0.21
		c0.05,0.13,0.24,0.6,0.55,1.38c0.32,0.79,0.72,1.96,1.34,3.92c0.4,1.57,0.95,3.72,0.73,5.86c-0.14,1.21-0.52,2.16-1.13,2.85
		c-0.69,0.81-1.64,1.37-2.92,1.71c-2.33,0.6-5.72,0.54-10.38-0.19c-3.57-0.57-7.59-1.47-12.63-2.85
		c-9.37-2.58-19.16-5.88-27.49-8.77c-6.94-2.39-13.87-4.85-20.57-7.23c-2.33-0.83-4.64-1.65-6.91-2.45l-2.56-0.89
		c-3.5-1.22-6.9-2.41-10.14-3.55c-4.19-1.44-8.23-2.79-11.47-3.86c-7.62-2.56-13.63-4.4-17.33-5.5c-2.35-0.71-4.54-1.34-6.49-1.86
		l-1.09-0.3l0.69,0.36c-1.27-0.42-1.96-0.65-1.96-0.65l-1.2-0.41l1.09,0.59c0,0,2.57,1.39,7.09,3.86c1.41,0.78,3.02,1.66,4.8,2.64
		l3.27,1.79c3.1,1.73,6.58,3.69,10.4,5.83c1.58,0.91,3.22,1.85,4.91,2.82c2.32,1.34,4.75,2.73,7.25,4.17
		c3.51,2.05,7.09,4.2,10.88,6.48l2.51,1.51c4.52,2.75,9.25,5.69,14.05,8.74c3.91,2.51,9.05,5.83,14.13,9.36
		c4.44,3.04,8.98,6.33,13.49,9.8c4.81,3.76,8.68,7.09,11.83,10.16c2.9,2.9,6.44,6.69,8.16,10.35c1.18,2.52,1.32,4.82,0.41,6.63
		c-0.33,0.66-0.8,1.25-1.4,1.78c-2.51,2.23-6.35,3.38-9.02,4.05c-2.84,0.68-5.76,1.19-8.68,1.53l-1,0.11
		c-2.05,0.23-3.66,0.42-4.85,0.49c-1.23,0.11-1.94,0.18-2.07,0.19l-0.65-0.13l0.53,0.27l0.05,0.03c0.02,0.02,0.06,0.03,0.1,0.04
		c0.17,0.09,0.67,0.32,1.54,0.72c0.74,0.32,1.73,0.78,2.89,1.33c0.5,0.23,1.02,0.48,1.59,0.74c2.15,1.02,4.39,2.18,6.68,3.45
		c3.21,1.84,5.5,3.49,7.2,5.19c1.1,1.16,1.73,2.22,1.87,3.15c0.18,1.02-0.1,1.97-0.85,2.95c-1.33,1.73-3.97,3.45-8.32,5.42
		c-3.23,1.41-6.98,2.75-11.8,4.21c-3.98,1.21-8.35,2.4-12.99,3.54c-4.52,1.14-9.06,2.18-13.32,3.14c-4.5,0.98-8.9,1.94-13.07,2.87
		c-4.26,0.9-8.39,1.78-12.28,2.61c-1.48,0.32-2.93,0.64-4.35,0.94c-2.33,0.51-4.56,0.99-6.69,1.45c-0.6,0.13-1.18,0.25-1.76,0.38
		c-0.66,0.14-1.32,0.28-1.97,0.43c-6.95,0.81-12.05,1.78-15.11,2.45c-3.89,0.86-6.02,1.64-6.04,1.64l-0.68,0.25
		c0,0,15.49-0.22,19.1-0.51c1.64,0,3.37,0.01,5.18,0.02c3.43,0.03,7.19,0.1,11.39,0.19c3.95,0.08,8.22,0.19,12.7,0.33
		c3.87,0.12,8.18,0.3,13.55,0.56l0.55,0.03c4.39,0.24,8.93,0.48,13.41,0.84c4.48,0.33,9.15,0.77,13.88,1.33
		c4.66,0.56,9.11,1.24,13.23,2.02c4.76,0.96,8.56,2,11.62,3.19c3.8,1.49,6.33,3.17,7.51,4.98c0.62,0.89,0.94,1.91,0.97,3.11
		c0.05,1.01-0.13,2.09-0.51,3.12c-0.68,1.77-1.65,3.5-2.79,4.98c-1.13,1.5-1.88,2.44-2.46,3.06l-0.25,0.29
		c-0.38,0.44-0.57,0.65-0.64,0.75l-0.6,0.17l0.7,0.03c0,0,0.58,0.02,1.63,0.04c0.84-0.02,2.01,0.04,3.49,0.11l1.03,0.05
		c2.52,0.17,4.7,0.42,6.85,0.8c2.02,0.37,5,1.13,7.8,2.65c2.48,1.42,4.33,3.43,5.35,5.83c1,2.24,1.43,5.07,1.28,8.43
		c-0.1,1.57-0.28,3.13-0.54,4.64c-0.33,1.61-0.66,3.18-1.1,4.75c-0.82,3-1.91,6.22-3.25,9.58c-1.69,4.22-3.7,8.61-6.13,13.43
		c-0.81,1.6-1.68,3.28-2.59,4.99c-1.51,2.82-3.06,5.62-4.61,8.32l-0.09,0.15c-1.49,2.58-2.9,5.01-4.26,7.24
		c-2.87,4.68-5.22,8.35-6.99,10.9c-0.24,0.33-0.46,0.65-0.67,0.95c-0.61,0.86-1.09,1.54-1.48,2.03c-0.42,0.55-0.65,0.86-0.76,0.98
		c-0.03,0.04-0.04,0.06-0.04,0.06l-0.19,0.16l0.31,0.02c0.02,0,0.07,0,0.11-0.02c0.42-0.22,2.16-1.23,4.49-2.9
		c3.09-2.2,6.91-5.24,10.76-8.57c1.82-1.56,4.23-3.64,6.78-5.95c1.76-1.58,3.57-3.24,5.43-4.93l1.96-1.78
		c1.6-1.46,3.23-2.95,4.88-4.46l2.96-2.71l1.32-1.19c2.23-2.01,4.53-4.08,6.86-6.08c2.55-2.22,5.31-4.5,8.43-6.96
		c2.55-1.93,5.57-4.17,8.68-6.08c3.44-2.09,6.25-3.44,8.86-4.25c3.11-1.01,5.97-1.19,8.27-0.51c2.13,0.59,4.31,1.99,6.14,3.94
		c1.76,1.93,2.93,3.66,3.59,4.76c0.75,1.24,1.49,2.5,1.91,3.35c0.42,0.79,0.65,1.22,0.65,1.22l0.01,0.49l0.13-0.24l0.23,0.42
		c0,0-0.1-0.66-0.09-0.66c0.04-0.08,0.27-0.41,0.6-0.87c0.21-0.36,0.54-0.8,0.92-1.31c0.26-0.34,0.54-0.73,0.84-1.14
		c0.7-0.87,1.75-2.19,3.11-3.45c1.69-1.52,3.26-2.5,4.96-3.11c1.95-0.78,4.21-0.95,6.73-0.51c2.39,0.44,5.12,1.46,7.91,2.95
		c2.39,1.26,4.96,2.91,8.07,5.17c2.81,2.08,5.43,4.19,7.81,6.26c2.61,2.23,5.11,4.54,7.45,6.72c2.14,2.01,4.37,4.16,7.01,6.76
		c4.06,4.01,7.82,7.84,11.13,11.21l1.07,1.09c1.03,1.08,2.01,2.09,2.96,3.06l0.74,0.75l0.02,0.02c0.01,0.01,0.02,0.02,0.03,0.03
		c1.66,1.84,3.29,3.58,4.85,5.15c1.81,1.84,2.98,2.93,3.27,3.19l0.27-0.03c0-0.01-0.04-0.16-0.17-0.43
		c-0.47-1.07-1.06-2.3-1.72-3.55c-0.63-1.22-1.33-2.48-2.1-3.81c-0.99-1.83-2.07-3.8-3.22-5.86c-2.23-4-4.85-8.69-7.65-13.68
		c-1.52-2.77-2.88-5.29-4.16-7.69c-1.46-2.82-2.76-5.36-3.93-7.92c-1.25-2.65-2.34-5.3-3.26-7.9c-0.99-2.86-1.56-5.29-1.76-7.43
		c-0.2-2.48,0.16-4.42,1.11-5.74c0.87-1.32,2.56-2.26,4.89-2.74c1.85-0.38,3.99-0.52,6.52-0.44c2.23,0.09,4.22,0.28,5.52,0.42
		c0.57,0.07,1.1,0.14,1.59,0.2c0.81,0.1,1.51,0.18,2.04,0.27c0.85,0.11,1.32,0.17,1.32,0.17l0.19,0.02l-0.06-0.15
		c0,0-0.18-0.43-0.54-1.23c-0.26-0.59-0.58-1.37-0.97-2.36c-0.13-0.33-0.27-0.69-0.42-1.06c-0.57-1.63-1.14-3.37-1.19-5.11
		c-0.03-0.5,0.08-0.93,0.18-1.19l0.02-0.04c0.15-0.29,0.33-0.49,0.53-0.57c0.39-0.17,1.4-0.24,2.67,0.02
		c2.73,0.51,6.03,1.8,9.19,3.11c3.54,1.49,7.25,3.23,10.4,4.74c3.47,1.66,6.99,3.38,10.71,5.21l0.39,0.19
		c3.79,1.87,7.64,3.76,11.49,5.65c2.95,1.43,5.91,2.86,8.83,4.28l2.74,1.33c3.3,1.59,6.78,3.24,11.3,5.33
		c3.32,1.54,6.82,3.12,10.69,4.84c3.56,1.57,6.9,2.98,9.71,4.14c6.25,2.63,11.48,4.64,14.76,5.86c3.4,1.26,5.52,1.97,5.72,2.03
		l0.72,0.21c0,0-8.58-6.78-20.89-15.12l-2.82-1.92c-2.25-1.53-4.61-3.13-7.07-4.8c-2.21-1.52-4.49-3.11-6.84-4.73l-4.07-2.82
		c-3.85-2.68-7.74-5.41-11.55-8.13c-3.74-2.69-7.73-5.57-11.67-8.58c-3.49-2.59-7.16-5.48-11.22-8.81
		c-3.87-3.2-7.15-6.13-10.03-8.96c-3.62-3.61-5.97-6.36-7.6-8.92c-2.03-3.21-2.77-5.97-2.15-7.97c0.08-0.26,0.19-0.53,0.31-0.78
		c0.8-1.59,2.59-3.04,5.04-4.06c2.13-0.88,4.54-1.59,6.97-2.06c2.19-0.42,3.77-0.7,4.91-0.84c1.14-0.18,1.76-0.25,1.77-0.26
		l1.07-0.14c0,0-1.09-0.07-1.11-0.08c-0.13-0.04-0.68-0.22-1.63-0.53c-0.77-0.25-2.38-0.79-4.58-1.65
		c-1.94-0.79-4.23-1.78-6.52-3.18c-1.65-1-4.52-3.02-5.24-5.3c-0.26-0.78-0.19-1.58,0.21-2.38c0.53-1.05,1.61-2.05,3.21-2.99
		c2.43-1.39,5.88-2.58,10.27-3.53c3.59-0.78,7.74-1.4,12.69-1.89c4.94-0.44,9.42-0.7,13.7-0.79c8.04-0.25,16.82-0.18,27.62,0.21
		c4.53,0.17,8.86,0.38,12.86,0.58c2.15,0.12,4.24,0.23,6.25,0.34c1.84,0.1,3.62,0.2,5.33,0.29c3.64,0.21,6.97,0.41,9.91,0.59
		c2.9,0.17,5.42,0.32,7.5,0.44c0.72,0.04,1.39,0.08,2,0.11c0.52,0.03,0.99,0.06,1.43,0.08c0.38,0.02,0.74,0.03,1.04,0.04
		c0.39,0.02,0.73,0.04,1.02,0.05l0.29,0.01c0.14,0,0.27,0.01,0.37,0.01c0.1,0,0.18,0.01,0.25,0.01l1.14,0.02l-0.86-0.22
		c0,0-0.09-0.02-0.23-0.07l-0.57-0.15c-0.99-0.26-2.84-0.76-5.41-1.4c-5.42-1.34-10.95-2.63-16.45-3.83
		c-3.14-0.7-6.9-1.54-10.98-2.41c-1.4-0.3-2.84-0.6-4.29-0.91c-2.58-0.55-5.22-1.11-7.92-1.69c-2.46-0.52-4.98-1.06-7.52-1.6
		c-1.82-0.39-3.66-0.78-5.51-1.18c-4.26-0.93-8.8-1.92-13.37-2.98c-8-1.84-17.3-4.1-25.65-6.88c-3.23-1.1-7.36-2.6-10.59-4.43
		c-1.48-0.82-2.74-1.73-3.65-2.63c-0.9-0.89-1.37-1.77-1.47-2.7c-0.1-0.82,0.18-1.77,0.82-2.83c0.46-0.8,1.16-1.63,2.11-2.52
		c1.5-1.38,3.15-2.64,4.78-3.66c1.27-0.82,2.57-1.65,3.45-2.16c0.65-0.39,1.06-0.63,1.21-0.72l0.03-0.02l0.23-0.14l-0.28-0.07
		c-0.06-0.02-0.68-0.17-1.78-0.45c-0.82-0.2-2.56-0.67-4.91-1.44c-2-0.68-4.55-1.64-6.56-3.13c-2.01-1.54-2.33-3.35-0.94-5.53
		c1.43-2.28,4.23-4.48,6.77-6.32c3.13-2.18,6.76-4.25,9.91-5.99c3.25-1.77,6.97-3.67,11.39-5.81c3.86-1.84,7.98-3.78,12.17-5.64
		c3.91-1.78,7.92-3.51,11.79-5.18l0.59-0.25c2.72-1.15,5.41-2.28,8.05-3.4l4.1-1.73c4.68-1.95,8.2-3.41,11.41-4.74
		c1.62-0.65,3.19-1.29,4.73-1.91c1.94-0.78,3.81-1.54,5.6-2.26c7.35-2.91,12.17-4.75,15.62-5.98c1.95-0.68,3.46-1.19,4.51-1.49
		c1.03-0.3,4.85-2.08,4.85-2.08c-0.29,0.01-15.33,0.86-23.63,2.98c-3.09,0.79-9.35,1.85-13.36,2.79c-3.95,0.94-8,1.94-12.01,2.98
		c-4.7,1.21-8.85,2.3-12.69,3.35c-4.31,1.16-8.68,2.33-13.06,3.5c-4.3,1.18-8.61,2.29-13,3.42c-5.06,1.26-9.09,2.2-12.67,2.95
		c-9.42,1.96-23.42,6.41-28.96-3.47c-1.42-2.53-1.7-6.16-4.37-8.02c-2.69-1.87-8.72,0.74-9.95-1.87
		c-12.03-25.52,23.63-121.21,160.91-220.96l-141.92,0.02C917.3,326.62,906.18,413.11,907.11,467.59z"/>
	<path class="st1" d="M1017.73,407.59c0,0,0.1-0.47,0.29-1.34c0.21-0.87,0.43-2.16,0.88-3.78c0.42-1.62,0.93-3.6,1.63-5.84
		c0.68-2.24,1.49-4.77,2.5-7.48c0.98-2.73,2.1-5.67,3.42-8.73c1.28-3.08,2.71-6.3,4.3-9.59c1.59-3.29,3.26-6.69,5.1-10.08
		c1.84-3.39,3.75-6.82,5.75-10.21c2.02-3.38,4.12-6.72,6.24-9.99c2.1-3.28,4.34-6.41,6.5-9.45c2.18-3.03,4.38-5.91,6.55-8.59
		c2.14-2.7,4.29-5.17,6.32-7.42c2.04-2.25,4-4.25,5.82-5.96c0.89-0.87,1.79-1.64,2.59-2.36c0.85-0.69,1.61-1.34,2.34-1.89
		c1.44-1.11,2.68-1.88,3.53-2.37c0.88-0.46,1.34-0.71,1.34-0.71s-0.42,0.3-1.22,0.86c-0.77,0.58-1.84,1.49-3.13,2.7
		c-1.28,1.22-2.74,2.76-4.35,4.59c-1.61,1.82-3.32,3.94-5.17,6.27c-1.81,2.35-3.74,4.91-5.72,7.66c-1.99,2.74-3.97,5.69-6.05,8.73
		c-2.06,3.05-4.08,6.25-6.16,9.5c-2.07,3.25-4.1,6.58-6.07,9.95c-2.02,3.34-3.95,6.72-5.82,10.06c-0.92,1.67-1.84,3.34-2.75,4.98
		c-0.88,1.65-1.78,3.27-2.6,4.89c-1.66,3.23-3.29,6.34-4.74,9.33c-0.74,1.49-1.42,2.95-2.09,4.36c-0.69,1.41-1.32,2.78-1.91,4.1
		c-0.61,1.31-1.16,2.59-1.68,3.79c-0.53,1.21-1.05,2.35-1.48,3.44c-0.91,2.17-1.68,4.06-2.29,5.63c-0.63,1.56-1.08,2.81-1.41,3.66
		C1017.9,407.14,1017.73,407.59,1017.73,407.59z"/>
	<path class="st1" d="M1064.36,347.09c0,0,0.18-0.62,0.56-1.67c0.17-0.53,0.45-1.15,0.81-1.86c0.35-0.71,0.74-1.53,1.22-2.4
		c0.47-0.88,1-1.78,1.59-2.73c0.59-0.95,1.19-1.98,1.88-2.99c1.39-2.02,2.88-4.18,4.53-6.25c0.83-1.03,1.65-2.06,2.5-3.06
		c0.82-1.01,1.71-1.96,2.56-2.88c0.85-0.92,1.71-1.79,2.51-2.62c0.81-0.83,1.66-1.56,2.42-2.24c0.75-0.69,1.47-1.3,2.11-1.83
		c0.69-0.51,1.32-0.93,1.82-1.28c1.01-0.69,1.61-1.04,1.61-1.04s-0.38,0.57-1.06,1.5c-0.35,0.46-0.75,1.02-1.25,1.63
		c-0.45,0.66-0.94,1.41-1.52,2.2c-0.56,0.8-1.19,1.65-1.85,2.54c-0.64,0.91-1.32,1.88-2.05,2.86c-0.74,0.97-1.5,1.98-2.27,3.01
		c-0.76,1.03-1.57,2.06-2.38,3.09c-1.64,2.04-3.24,4.1-4.86,5.98c-0.8,0.94-1.57,1.85-2.31,2.71c-0.72,0.86-1.48,1.66-2.12,2.39
		c-0.63,0.74-1.24,1.4-1.8,1.99c-0.54,0.6-1.06,1.11-1.42,1.57C1064.84,346.59,1064.36,347.09,1064.36,347.09z"/>
	<path class="st1" d="M1039.96,416.28c0,0,0.08-0.24,0.22-0.7c0.15-0.45,0.35-1.12,0.71-1.94c0.67-1.67,1.72-3.99,3.15-6.71
		c1.41-2.73,3.2-5.85,5.27-9.12c1.04-1.63,2.12-3.31,3.29-4.99c1.14-1.69,2.37-3.36,3.61-5.04c1.24-1.67,2.55-3.31,3.84-4.92
		c1.3-1.61,2.65-3.15,3.95-4.63c1.35-1.46,2.64-2.88,3.95-4.18c1.33-1.29,2.54-2.51,3.79-3.57c1.23-1.07,2.32-2.06,3.42-2.84
		c1.07-0.81,1.98-1.51,2.82-2.03c1.66-1.03,2.63-1.56,2.63-1.56s-0.69,0.83-1.91,2.18c-0.62,0.67-1.26,1.58-2.09,2.53
		c-0.83,0.95-1.63,2.13-2.61,3.32c-0.98,1.2-1.91,2.59-3,3.97c-1.06,1.41-2.17,2.9-3.33,4.44c-2.3,3.09-4.75,6.39-7.2,9.69
		c-2.48,3.29-4.96,6.58-7.32,9.65c-1.19,1.53-2.35,3.01-3.44,4.41c-1.09,1.41-2.17,2.71-3.14,3.93c-0.95,1.23-1.89,2.32-2.69,3.31
		c-0.81,0.98-1.51,1.84-2.09,2.54c-0.58,0.7-1.06,1.26-1.35,1.66C1040.13,416.08,1039.96,416.28,1039.96,416.28z"/>
	<path class="st0" d="M1018.87,283.78c-0.96,1.49-1.92,2.99-2.88,4.54c-4.19,6.71-8.28,13.93-12.27,21.5
		c-3.95,7.59-7.79,15.53-11.34,23.72c-3.57,8.18-6.9,16.6-9.89,25.12c-6.01,17.02-10.69,34.43-13.71,50.99
		c-3.05,16.55-4.46,32.24-4.58,45.73c-0.07,6.75,0.16,12.94,0.53,18.43c0.41,5.49,0.94,10.27,1.5,14.2
		c0.56,3.92,1.11,7.14,1.51,9.12c0.39,2.04,0.6,3.14,0.6,3.14l12.48-2.03c0,0-0.26-1.08-0.74-3.11c-0.52-2.08-1.11-4.86-1.82-8.6
		c-0.71-3.73-1.42-8.28-2.05-13.53c-0.59-5.25-1.08-11.2-1.3-17.72c-0.47-13.03,0.21-28.31,2.46-44.59
		c2.23-16.28,6.05-33.54,11.22-50.52c2.57-8.49,5.48-16.91,8.65-25.12c3.14-8.21,6.6-16.2,10.17-23.84
		c3.61-7.63,7.34-14.93,11.2-21.71c1.1-1.95,2.2-3.84,3.31-5.71H1018.87z"/>
	<path class="st1" d="M1069.52,283.78c-0.24,0.27-0.47,0.53-0.71,0.81c-1.52,1.85-3.06,3.72-4.61,5.61
		c-1.55,1.9-3.16,3.79-4.66,5.77c-1.5,1.98-3.01,3.99-4.54,6.01c-6.09,8.09-12.01,16.66-17.61,25.57
		c-5.44,8.99-10.86,18.17-15.61,27.63c-2.46,4.7-4.58,9.52-6.83,14.27c-1.08,2.39-2.08,4.81-3.12,7.2c-0.52,1.2-1.03,2.39-1.54,3.59
		c-0.48,1.2-0.96,2.41-1.43,3.61c-0.94,2.4-1.88,4.8-2.81,7.18c-0.84,2.41-1.68,4.81-2.51,7.19c-0.86,2.37-1.59,4.76-2.34,7.13
		c-0.73,2.37-1.53,4.71-2.17,7.06c-2.8,9.36-4.83,18.56-6.54,27.29c-1.64,8.75-2.69,17.09-3.34,24.8
		c-0.58,7.72-0.8,14.81-0.53,21.09c0.01,1.57,0.12,3.09,0.22,4.55c0.1,1.46,0.18,2.88,0.31,4.23c0.16,1.35,0.32,2.65,0.46,3.89
		c0.13,1.24,0.29,2.42,0.5,3.53c0.38,2.23,0.68,4.22,1.15,5.93c0.43,1.71,0.71,3.18,1.11,4.33c0.73,2.31,1.13,3.55,1.13,3.55
		s-0.22-1.27-0.63-3.64c-0.26-1.18-0.35-2.66-0.56-4.38c-0.23-1.71-0.3-3.71-0.45-5.92c-0.09-1.11-0.12-2.28-0.12-3.51
		c-0.01-1.23-0.03-2.51-0.04-3.85c0.04-1.34,0.07-2.73,0.11-4.18c0.03-1.45,0.06-2.94,0.19-4.49c0.1-1.54,0.21-3.14,0.32-4.78
		c0.17-1.64,0.34-3.32,0.52-5.05c0.09-0.86,0.18-1.74,0.27-2.62c0.12-0.88,0.23-1.78,0.35-2.68c0.24-1.81,0.49-3.66,0.75-5.55
		c0.64-3.77,1.23-7.69,2.1-11.72c0.76-4.04,1.73-8.2,2.69-12.47c2.11-8.52,4.62-17.44,7.58-26.58c3.02-9.13,6.45-18.48,10.37-27.84
		c0.48-1.17,0.96-2.35,1.44-3.53c0.52-1.17,1.03-2.34,1.55-3.51c1.04-2.34,2.05-4.7,3.13-7.04c2.26-4.64,4.39-9.36,6.85-13.95
		c4.58-9.31,9.8-18.37,15.05-27.24c1.38-2.19,2.75-4.36,4.11-6.53c1.35-2.17,2.65-4.36,4.09-6.46c2.83-4.22,5.51-8.46,8.46-12.46
		c1.44-2.02,2.86-4.03,4.28-6.01c1.43-1.98,2.93-3.88,4.35-5.81c1.44-1.92,2.86-3.82,4.26-5.69c1.17-1.45,2.31-2.88,3.45-4.3
		H1069.52z"/>
	<path class="st1" d="M1190.85,283.78c-1.86,1.38-3.82,2.85-5.88,4.41c-2.52,1.94-5.21,4-8.04,6.18c-2.82,2.18-5.72,4.54-8.79,6.97
		c-3.08,2.41-6.18,5.02-9.43,7.7c-3.26,2.66-6.56,5.47-9.93,8.38c-1.69,1.45-3.4,2.92-5.13,4.41c-1.7,1.51-3.43,3.05-5.17,4.59
		c-3.51,3.07-6.99,6.31-10.54,9.58c-3.59,3.25-7.07,6.68-10.66,10.1c-3.57,3.44-7.08,7-10.66,10.55
		c-7.02,7.22-14.09,14.59-20.79,22.22c-3.42,3.76-6.65,7.66-9.94,11.49c-1.62,1.93-3.19,3.89-4.78,5.82
		c-1.59,1.93-3.16,3.87-4.67,5.84c-6.19,7.77-11.81,15.68-17.09,23.41c-5.24,7.76-9.87,15.48-13.98,22.9
		c-4.05,7.46-7.41,14.7-10.17,21.48c-2.63,6.83-4.61,13.2-5.87,18.95c-1.15,5.76-1.82,10.83-1.76,15.03c0,1.05-0.01,2.04-0.01,2.97
		c0.09,0.93,0.17,1.8,0.25,2.61c0.08,0.81,0.15,1.56,0.22,2.25c0.06,0.69,0.25,1.3,0.35,1.85c0.47,2.2,0.72,3.38,0.72,3.38
		s-0.21-1.18-0.6-3.39c-0.08-0.55-0.25-1.16-0.28-1.85c-0.04-0.69-0.09-1.43-0.13-2.24c-0.05-0.81-0.1-1.68-0.15-2.6
		c0.04-0.93,0.08-1.91,0.12-2.95c0.09-4.17,0.95-9.19,2.3-14.86c1.46-5.66,3.66-11.92,6.52-18.6c2.98-6.65,6.58-13.72,10.86-20.99
		c4.35-7.24,9.22-14.75,14.7-22.29c5.52-7.52,11.38-15.19,17.8-22.71c1.56-1.91,3.19-3.78,4.84-5.65c1.65-1.87,3.27-3.77,4.94-5.63
		c3.4-3.7,6.74-7.46,10.27-11.1c6.91-7.37,14.19-14.47,21.4-21.41c3.68-3.42,7.28-6.84,10.94-10.14c3.69-3.28,7.26-6.58,10.92-9.69
		c3.63-3.14,7.19-6.24,10.78-9.18c1.78-1.48,3.54-2.95,5.28-4.4c1.77-1.42,3.51-2.83,5.23-4.22c3.44-2.78,6.8-5.47,10.12-8
		c3.3-2.55,6.47-5.04,9.59-7.34c3.12-2.31,6.07-4.56,8.94-6.64c2.88-2.07,5.6-4.03,8.17-5.88c5.14-3.66,9.69-6.75,13.4-9.34
		c1.04-0.7,2.01-1.35,2.93-1.96H1190.85z"/>
</g>
<path id="yellow_fire" class="st1" d="M992.18,476.2c-3.48,1.22-6.56,2.05-9.63,2.6c-2.57,0.44-4.7,0.63-6.74,0.6
	c-2.64-0.03-5.05-0.43-7.18-1.21c-6.36-2.23-10.29-8.35-10.05-14.21c0.17-4.1,2.13-8,3.57-11.85c2.92-7.83,5.51-15.77,8.16-23.67
	c-0.75,1.43-2.03,2.55-3.14,3.77c-5.35,5.9-10.1,12.24-15.34,18.22c-1.48,1.68-2.98,3.35-4.53,4.98c-1.64,1.73-3.6,3.75-6.22,4.33
	c-4.33,0.96-9.62-2.41-12.59-4.81c-4.09-3.31-6.29-7.53-8.18-12.01c-1.82-4.29-3.55-8.62-5.36-12.91c-0.33-0.79-1.4-2.31-1.32-3.18
	c0,0-1.79,21.85-1.79,21.85c-0.39,1.68-0.86,3.31-1.38,4.84l-0.14,0.44c-1.24,3.61-2.77,6.59-4.67,9.15
	c-2.54,3.39-5.77,5.6-9.41,6.4c-1.95,0.45-4.03,0.51-6.11,0.14c-1.95-0.32-3.57-0.96-4.9-1.54c-0.64-0.29-12.98-11.07-13.59-11.4
	l3.14,13.04c-0.19,0.96-0.45,1.84-0.86,2.78c-0.72,1.59-1.71,2.81-3.07,3.74c-1.54,1.08-3.92,1.77-6.35,1.83
	c-5.07,0.11-10.09-1.67-13.86-3.22c-3.96-1.64-8.09-3.76-12.95-6.67c-3.55-2.14-7.07-4.43-10.48-6.8l-30.49-24.18l21.86,29.12
	c2.54,3.99,4.7,7.68,6.61,11.29c2.8,5.35,4.82,10.05,6.19,14.39c1.82,5.88,2.33,10.34,1.67,14.38c-0.49,2.68-1.57,4.91-3.2,6.56
	c-1.69,1.78-4.18,3.09-6.99,3.68c-3,0.62-6.06,0.69-9.63,0.22l-11.55-1.54l6.38,8.09c0.77,0.98,1.42,1.96,1.96,2.92
	c1.13,2.15,1.54,4.06,1.24,5.87c-0.3,2.07-1.81,4.11-4.06,5.52c-2.27,1.48-4.95,2.27-6.8,2.74c-2.55,0.66-5.11,1.02-7.4,1.28
	c-6.07,0.63-12.93,0.72-20.96,0.31l-32.48-4.82l30.78,13.48c4.61,2.3,8.92,4.74,12.81,7.24c4.59,3,8.02,5.75,10.69,8.54
	c1.75,1.89,2.93,3.48,3.74,5.08c0.99,1.89,1.45,3.8,1.31,5.57c-0.12,1.71-0.8,3.33-2.05,4.73c-0.91,1.05-2.05,1.97-3.53,2.83
	l-7.16,4.22l8.72,3.5c3.14,1.26,5.73,2.81,7.84,4.7c1.53,1.41,2.74,2.95,3.59,4.56c0.84,1.61,1.32,3.47,1.45,5.48
	c0.19,3.34-0.71,6.78-2.79,10.73c-1.96,3.6-4.82,7.34-8.5,11.1l-22.49,17.54l29.92-10.35c4.95-1.12,9.32-1.87,13.36-2.29
	c5.26-0.54,9.58-0.56,13.55-0.04c2.59,0.35,4.74,0.87,6.64,1.61c2.15,0.82,4.06,1.97,5.52,3.33c1.35,1.25,2.42,2.73,3.03,4.18
	l0.02,0.07c0.34,0.89,0.59,1.73,0.74,2.52l-0.86,11.63l9.55-7.82c1.37-0.56,2.8-0.96,4.37-1.22c3.33-0.6,7.63-0.06,11.17,1.38
	c3.44,1.42,6.66,3.57,9.55,6.37l0.08,0.07c1.2,1.13,2.37,2.38,3.73,4.04c0.63,0.74,1.26,1.54,1.9,2.44l7.86,13.94l2.57-14.21
	c0.67-1.8,1.45-3.42,2.4-4.93c2.04-3.21,4.71-5.44,7.93-6.63c1.79-0.66,3.81-0.98,5.77-0.93c1.71,0.04,3.42,0.32,5.26,0.83
	c2.08,0.62,4.09,1.48,6.14,2.62l7.51,4.2l1.17-6.75c0.06-0.3,0.13-0.62,0.22-1c0.16-0.62,0.49-1.3,0.86-1.83l0.04-0.06
	c0.62-0.81,1.41-1.37,2.45-1.73c0.95-0.33,2.18-0.4,3.57-0.17c1.2,0.18,2.24,0.54,3.07,0.86l0.05,0.01
	c3.91,1.58,7.16,3.84,10.09,5.99c1.37,1.02,2.75,2.09,4.18,3.26l26.07,25.13l-16.74-29.16c-1.37-3.15-2.54-6.28-3.47-9.3
	c-1.39-4.59-2.01-8.6-1.9-12.25c0.07-2.26,0.44-4.13,1.16-5.83c0.85-1.96,2.18-3.62,3.86-4.8c1.64-1.15,3.67-1.93,6-2.27
	c0.66-0.11,1.33-0.18,2.05-0.21l17.61,4.1l-13.6-10.55c-0.16-0.22-0.3-0.43-0.43-0.62c-1.17-1.81-1.69-3.43-1.65-5.17
	c-0.02-1.88,1.12-3.97,2.95-5.39c1.91-1.54,4.29-2.3,6.32-2.82l0.05-0.01c4.09-0.98,8.78-1.25,14.78-0.86
	c3.52,0.23,7.29,0.69,11.17,1.37l31.31,8.44l-26.75-15.88c-1.4-1.11-2.74-2.23-3.96-3.3c-2.74-2.44-6.18-5.71-8.63-9.41
	c-0.85-1.31-2.02-3.29-2.43-5.48c-0.38-1.98,0.06-4.07,1.21-5.59c1-1.34,2.5-2.41,4.48-3.18c1.31-0.52,2.69-0.9,4.35-1.19l8.45-1.5
	l-6.01-5.62c-0.41-0.38-0.81-0.8-1.12-1.17l-0.04-0.05c-1.33-1.59-1.94-3.35-1.73-4.98c0.19-1.6,1.25-3.23,3.07-4.74
	c1.38-1.13,3.01-2.11,5.22-3.15c2.12-0.96,4.42-1.74,6.15-2.28c3.53-1.11,7.47-2.08,11.68-2.91l37.6-3.91l-38.33-4.8
	c-1.84-0.45-3.62-0.93-5.29-1.44c-5.06-1.52-9.03-3.27-12.13-5.33c-1.93-1.3-3.41-2.71-4.29-4.12c-0.93-1.46-1.38-3.13-1.25-4.64
	c0.16-1.48,0.64-2.84,1.54-4.19l3.3-5.03l-7.38-1.7c-0.27-0.06-0.55-0.13-0.75-0.19c-2.37-0.65-5.13-1.6-7.47-3.69
	c-1.23-1.08-2.2-2.41-2.79-3.83c-0.54-1.3-0.78-2.78-0.73-4.37c0.08-1.89,0.53-3.79,1.44-5.9l14.54-17.44L992.18,476.2z"/>
<g id="hand">
	<path class="st2" d="M953.5,472.13c0.35-0.08,30.08-7.62,40.4-5.71c8.8,1.62,18.24,6.99,20.6,20.21
		c2.36,13.22-3.32,16.9-3.51,24.08c-0.19,7.18,2.36,17.03,0.01,26.28c-1.88,7.41-8.58,9.79-12.99,10.87
		c-7.92,1.93-14.27-0.21-17.19-2.28c-2.92-2.06-10.6-9.86-12.05-18.14c-1.46-8.27-3.85-14.52,1.07-27.62
		c3.04-8.08-15.63-7.77-15.63-7.77L953.5,472.13z"/>
	<path class="st3" d="M1016.96,493.07c-0.07,4.78-1.31,8.07-2.4,10.97c-0.87,2.31-1.62,4.3-1.68,6.71l0,0.32
		c-0.03,2.28,0.21,4.88,0.46,7.63c0.29,3.25,0.61,6.61,0.56,10.11c-0.04,3.17-0.39,5.97-1.04,8.54
		c-2.32,9.16-11.35,11.36-14.32,12.09c-8.36,2.04-15.4-0.12-18.89-2.58c-3.35-2.36-11.2-10.46-12.73-19.16
		c-0.19-1.09-0.4-2.15-0.6-3.19c-0.69-3.51-1.35-6.82-1.29-10.78c0.06-4.47,1.03-9.05,3.05-14.41c0.45-1.21,0.28-2.11-0.63-2.9
		c-2.75-2.37-10.45-2.78-13.18-2.73l-1.86,0.03l-0.82-22.84l1.57-0.36c7.22-1.79,31.51-7.48,41.15-5.7
		c7.04,1.3,19.26,5.83,22.07,21.56C1016.79,488.78,1016.99,490.97,1016.96,493.07z M1009.11,511.03l0.01-0.35
		c0.07-2.9,0.94-5.21,1.86-7.66c1.06-2.81,2.15-5.72,2.21-9.99c0.02-1.92-0.15-3.93-0.55-6.15c-2.34-13.1-11.69-17.49-19.13-18.86
		c-4.67-0.86-30.22,1.86-22.15,13.97c0,0-4.71,9.16-1.29,12.12c1.32,1.14,2.01,2.56,1.98,4.11l0,0c-0.01,0.68-0.15,1.39-0.43,2.12
		c-1.89,5.03-2.61,11.05-1.78,13.84c1.05,3.55,8.26,9.25,4.44,11.3c-1.05,0.56-3.85,0.62-3.66,1.73c1.39,7.92,12.54,7.3,13.05,11.67
		c0.36,3.11,6.86,9.12,13.83,7.42c4.22-1.03,10.01-3.15,11.66-9.65c0.6-2.36,0.91-4.93,0.95-7.88c0.05-3.35-0.25-6.63-0.54-9.81
		C1009.32,516.13,1009.07,513.46,1009.11,511.03z"/>
	<path class="st4" d="M997.11,510.39c5.11,0.06,12.27-1.69,12.84-0.77c2.15,3.52,1.79,23.63,0.31,26.55
		c-1.47,2.92-4.98,3.13-8.71,2.79c-3.73-0.35-14.64-5.87-17.02-9.69c-2.38-3.82-0.87-11.79,1.08-14.69
		C987.57,511.7,991.16,510.33,997.11,510.39z"/>
	<path class="st3" d="M1012.71,524.65c-0.07,4.67-0.44,10.27-1.29,11.96c-1.86,3.69-6.32,3.78-9.99,3.44
		c-4.17-0.39-15.38-6.06-17.99-10.26c-1.18-1.89-1.39-4.4-1.37-6.18c0.05-3.5,1.09-7.53,2.47-9.58c2.23-3.3,6.23-4.81,12.59-4.74
		c2.24,0.03,4.92-0.32,7.28-0.62c4.07-0.51,5.92-0.75,6.64,0.43C1012.75,511.9,1012.75,521.71,1012.71,524.65z M984.58,523.65
		c-0.03,2.17,0.34,3.94,1.06,5.11c2.17,3.48,12.6,8.81,16.05,9.12c4.31,0.4,6.46-0.22,7.43-2.14c0.47-0.94,1-5.05,1.08-11.11
		c0.09-6.64-0.39-12.3-1.21-14.18c-0.79-0.03-2.67,0.21-4.23,0.4c-2.46,0.31-5.24,0.66-7.67,0.64c-5.37-0.06-8.67,1.1-10.39,3.66
		C985.71,516.62,984.63,520.1,984.58,523.65z"/>
	<path class="st3" d="M986.99,513.17c0,0,0.38,0.09,1.03,0.26c0.32,0.09,0.72,0.15,1.17,0.24c0.44,0.1,0.97,0.15,1.52,0.25
		c0.56,0.09,1.17,0.14,1.81,0.23c0.65,0.06,1.33,0.13,2.03,0.18c1.41,0.1,2.91,0.17,4.4,0.18c0.75,0.01,1.5-0.01,2.23-0.03
		c0.73-0.04,1.45-0.06,2.13-0.13c0.69-0.04,1.35-0.11,1.97-0.16c0.63-0.05,1.19-0.12,1.73-0.17c0.52-0.06,1-0.12,1.42-0.17
		c0.41-0.07,0.76-0.12,1.06-0.17c0.13-0.05,0.26-0.06,0.41,0.01c0.08,0.03,0.16,0.08,0.24,0.14c0.07,0.04,0.16,0.11,0.23,0.17
		c0.15,0.12,0.31,0.28,0.4,0.36c0.11,0.11,0.17,0.17,0.17,0.17s0.02,0.08,0.04,0.22c0.01,0.11,0.04,0.31,0.03,0.49
		c-0.01,0.09-0.02,0.19-0.05,0.27c-0.02,0.09-0.06,0.18-0.1,0.25c-0.09,0.16-0.24,0.24-0.42,0.31c-0.35,0.13-0.77,0.26-1.27,0.41
		c-0.49,0.13-1.04,0.24-1.65,0.36c-0.3,0.04-0.62,0.08-0.94,0.12c-0.33,0.04-0.66,0.08-1.01,0.09c-0.35,0.01-0.7,0.03-1.06,0.04
		c-0.36,0-0.73-0.01-1.11-0.02c-0.75-0.01-1.52-0.08-2.29-0.13c-0.78-0.07-1.56-0.15-2.34-0.25c-0.78-0.11-1.56-0.21-2.31-0.34
		c-0.76-0.12-1.5-0.29-2.22-0.44c-0.71-0.15-1.39-0.35-2.04-0.52c-0.64-0.2-1.24-0.37-1.79-0.58c-0.54-0.21-1.03-0.38-1.46-0.59
		c-0.42-0.21-0.8-0.36-1.08-0.52C987.31,513.36,986.99,513.17,986.99,513.17z"/>
	<path class="st3" d="M911.96,465.61c-6.88,1.16-13.07,3.36-17.8,3.72c-32.64,2.49-52.82,0.31-66.9,9.54
		c-13.07,8.56-13.31,20.99-13.1,29.08c0.16,6.03,2.04,10.31,3.4,13.42c0.43,0.98,3.13,6.63,2,9.88c-0.78,2.25-2.13,5.92-3.57,8.78
		c-1.27,2.52-3.89,7.09-3.99,14.18c-0.02,1.7,0.11,3.48,0.39,5.31c1.48,9.62,8.39,17.32,12.45,20.88c0.69,0.62,2.37,3.78,0.8,9.64
		c-1.04,3.86-2.49,8.3-2.55,12.55c-0.02,1.09,0.07,2.14,0.25,3.13c1.26,6.69,5.18,10.97,8.83,13.96c2.57,2.12,4.17,4.07,4.77,6.06
		c0.74,2.45-0.41,5.88-1.06,7.75c-1.31,3.8-0.28,8.37,0.01,9.6c1.72,7.56,7.06,11.34,16.32,15.65c9.86,4.59,29.65,5.11,40.55,4.01
		c6.1-0.62,12.18-0.64,18.75-0.72c13.75-0.18,23.71,2.95,36.3-3.15c14.72-7.13,20.19-19.68,20.38-33.52
		c0.07-4.89-0.58-6.59-1.26-9.6c2.71-2.33,9.99-8.99,10.95-24.26c0.47-7.44-2.74-13.58-7.09-19.75
		c8.12-5.24,13.68-16.87,13.85-28.41c0.1-7.48-1.85-21.39-18.88-27.19c2.44-3.96,7.48-13.25,7.63-23.71
		c0.05-3.82-0.73-7.3-2.04-10.46c-4.72-11.42-20.76-18.29-31.15-19.34C934.28,462.04,922.41,463.84,911.96,465.61z M939.02,466.95
		c9.12,0.93,25.87,9.63,28.84,16.23c1.23,2.73,1.82,5.83,1.77,9.23c-0.18,12.25-8.21,18.31-10.48,20.14
		c-4.01,3.23-41.65,1.85-63.91,6.06c-4.61,0.87-7.14,1.89-10.89,1.75c-3.22-0.12-19.93-0.89-24.76-2.62
		c3.71,3.01,20.03,3.25,21.04,3.91c1.02,0.66-3.86,1.55-12.37,2.08c8.59,1.14,14.43-0.59,30.46-3.11
		c12.47-1.96,59.89-1.36,63.26-0.67c12.92,3.31,17.97,15.37,17.87,22.26c-0.17,12.24-8.44,19.2-14.76,23.46
		c-3.35,2.25-14.88-0.75-36.24,2.11c-20.57,2.75-36.99,5.26-59.35,2.31c4.33,2,9.47,3.11,16.54,3.53c0.95,0.06-5.14,0.71-10.14,1.77
		c7.28,0.49,18.48-1.74,19.47-1.75c9.32-0.04,16.51-1.02,22.39-1.75c21.53-2.68,43.12-0.17,45.82,1.31
		c2.69,1.49,7.96,8.44,7.82,18.98c-0.18,12.56-8.37,18.75-11.38,21.22c-7.82,6.46-67.62-0.09-93.3,5.36
		c4.63-0.19,12.76-0.87,16.83-0.18c1.08,0.18-6.3,1.93-8.96,4.99c4.61-1.68,8.31-3.73,14.91-4.92c25.7,0.46,54.77,2.07,70.87-1.06
		c0,0,2.21,4.2,2.16,7.99c-0.18,12.68-6.47,23.44-16.83,28.78c-7.8,4.02-21.09,3.44-33.74,3.6c-6.66,0.09-13.34,0.92-19.62,1.56
		c-10.12,1.01-29.31,0.56-38.35-3.66c-8.61-4-13.02-7.41-14.48-13.77c-0.97-4.26,0.45-9.64,2.32-13.1
		c2.08-3.82,5.86-2.15,17.18-4.07c-9.09-1.66-17.22-2.77-23.66-8.19c-3.36-2.83-7.26-5.94-8.31-11.53c-0.15-0.81-0.21-1.67-0.2-2.57
		c0.05-3.76,1.82-7.71,2.88-11.33c2.61-8.91,7.71-12.25,18.28-15.74c-9.81-0.82-15.28,0.33-20.3-0.94
		c-5.14-1.29-9.8-7.11-11.13-15.64c-0.26-1.67-0.38-3.3-0.36-4.84c0.09-6.27,1.7-9.88,3.11-12.69c1.35-2.71,4.59-6.32,7.03-8.44
		c4.66-4.07,11.39-7.65,17.37-9.49c-7.35-1.31-16.01,2.57-19.53-0.67c-2.59-2.38-5.61-9.84-5.8-15.31
		c-0.33-9.65,3.39-18.81,11.55-24.34c11.47-7.77,32.57-8.17,64.55-10.6c4.92-0.37,11.51-1.49,18.49-2.67
		C923.15,468.19,933.66,466.41,939.02,466.95z"/>
	<path class="st2" d="M939.02,466.95c9.12,0.93,25.87,9.63,28.84,16.23c1.23,2.73,1.82,5.83,1.77,9.23
		c-0.18,12.25-8.21,18.31-10.48,20.14c-4.01,3.23-41.65,1.85-63.91,6.06c-4.61,0.87-7.14,1.89-10.89,1.75
		c-3.22-0.12-19.93-0.89-24.76-2.62c3.71,3.01,20.03,3.25,21.04,3.91c1.02,0.66-3.86,1.55-12.37,2.08
		c8.59,1.14,14.43-0.59,30.46-3.11c12.47-1.96,59.89-1.36,63.26-0.67c12.92,3.31,17.97,15.37,17.87,22.26
		c-0.17,12.24-8.44,19.2-14.76,23.46c-3.35,2.25-14.88-0.75-36.24,2.11c-20.57,2.75-36.99,5.26-59.35,2.31
		c4.33,2,9.47,3.11,16.54,3.53c0.95,0.06-5.14,0.71-10.14,1.77c7.28,0.49,18.48-1.74,19.47-1.75c9.32-0.04,16.51-1.02,22.39-1.75
		c21.53-2.68,43.12-0.17,45.82,1.31c2.69,1.49,7.96,8.44,7.82,18.98c-0.18,12.56-8.37,18.75-11.38,21.22
		c-7.82,6.46-67.62-0.09-93.3,5.36c4.63-0.19,12.76-0.87,16.83-0.18c1.08,0.18-6.3,1.93-8.96,4.99c4.61-1.68,8.31-3.73,14.91-4.92
		c25.7,0.46,54.77,2.07,70.87-1.06c0,0,2.21,4.2,2.16,7.99c-0.18,12.68-6.47,23.44-16.83,28.78c-7.8,4.02-21.09,3.44-33.74,3.6
		c-6.66,0.09-13.34,0.92-19.62,1.56c-10.12,1.01-29.31,0.56-38.35-3.66c-8.61-4-13.02-7.41-14.48-13.77
		c-0.97-4.26,0.45-9.64,2.32-13.1c2.08-3.82,5.86-2.15,17.18-4.07c-9.09-1.66-17.22-2.77-23.66-8.19
		c-3.36-2.83-7.26-5.94-8.31-11.53c-0.15-0.81-0.21-1.67-0.2-2.57c0.05-3.76,1.82-7.71,2.88-11.33c2.61-8.91,7.71-12.25,18.28-15.74
		c-9.81-0.82-15.28,0.33-20.3-0.94c-5.14-1.29-9.8-7.11-11.13-15.64c-0.26-1.67-0.38-3.3-0.36-4.84c0.09-6.27,1.7-9.88,3.11-12.69
		c1.35-2.71,4.59-6.32,7.03-8.44c4.66-4.07,11.39-7.65,17.37-9.49c-7.35-1.31-16.01,2.57-19.53-0.67c-2.59-2.38-5.61-9.84-5.8-15.31
		c-0.33-9.65,3.39-18.81,11.55-24.34c11.47-7.77,32.57-8.17,64.55-10.6c4.92-0.37,11.51-1.49,18.49-2.67
		C923.15,468.19,933.66,466.41,939.02,466.95z"/>
	<g>
		<path class="st3" d="M979.74,485.26c0,0,0.12-0.49,0.33-1.36c0.04-0.22,0.14-0.45,0.25-0.71c0.11-0.26,0.22-0.53,0.34-0.83
			c0.11-0.3,0.3-0.59,0.48-0.91c0.19-0.31,0.37-0.65,0.62-0.98c0.26-0.32,0.53-0.64,0.81-0.99l0.21-0.26l0.25-0.24
			c0.17-0.16,0.34-0.32,0.52-0.49c0.18-0.16,0.36-0.33,0.54-0.5c0.2-0.15,0.41-0.3,0.61-0.45c0.21-0.15,0.42-0.31,0.63-0.46
			c0.21-0.16,0.44-0.3,0.68-0.42c0.48-0.26,0.95-0.54,1.46-0.8c0.52-0.22,1.05-0.45,1.58-0.68c0.53-0.23,1.1-0.37,1.66-0.57
			c0.28-0.09,0.56-0.19,0.85-0.27l0.87-0.2c0.58-0.12,1.15-0.29,1.74-0.37c0.58-0.09,1.17-0.18,1.76-0.27
			c0.58-0.1,1.16-0.11,1.74-0.16c0.57-0.03,1.14-0.11,1.7-0.11c0.56-0.01,1.11-0.01,1.64-0.01c0.27,0,0.54,0,0.8,0
			c0.26,0.02,0.52,0.03,0.77,0.05c1.02,0.08,1.99,0.12,2.86,0.26c0.88,0.13,1.67,0.25,2.39,0.37c0.7,0.14,1.3,0.34,1.77,0.54
			c0.48,0.2,0.85,0.39,1.09,0.55c0.12,0.07,0.21,0.14,0.27,0.18c0.06,0.04,0.09,0.07,0.09,0.07s-0.04,0.01-0.12,0.03
			c-0.07,0.02-0.19,0.05-0.34,0.08c-0.29,0.07-0.71,0.13-1.23,0.17c-0.52,0.04-1.14,0.03-1.83-0.04c-0.7-0.05-1.48-0.11-2.33-0.18
			c-0.85-0.1-1.78-0.08-2.75-0.16c-0.97-0.07-1.99-0.03-3.05-0.07c-0.53-0.03-1.06,0.02-1.61,0.03c-0.54,0.03-1.1,0.02-1.65,0.08
			c-0.55,0.06-1.11,0.11-1.66,0.16c-0.56,0.04-1.1,0.18-1.65,0.26l-0.83,0.14c-0.27,0.05-0.54,0.13-0.81,0.2
			c-0.53,0.15-1.08,0.25-1.59,0.43c-0.51,0.18-1.02,0.36-1.52,0.54c-0.48,0.21-0.94,0.44-1.41,0.66c-0.48,0.19-0.86,0.5-1.29,0.73
			c-0.21,0.13-0.42,0.25-0.62,0.37c-0.18,0.14-0.37,0.29-0.54,0.42c-0.18,0.14-0.36,0.28-0.54,0.41l-0.26,0.2l-0.23,0.23
			c-0.3,0.3-0.59,0.59-0.87,0.87c-0.26,0.28-0.46,0.6-0.69,0.87c-0.22,0.28-0.45,0.54-0.59,0.82c-0.16,0.27-0.3,0.52-0.44,0.76
			c-0.14,0.23-0.27,0.45-0.34,0.66C979.94,484.79,979.74,485.26,979.74,485.26z"/>
		<path class="st3" d="M984.36,491.54c0,0,0.05-0.11,0.13-0.31c0.09-0.2,0.16-0.5,0.4-0.85c0.11-0.18,0.22-0.38,0.35-0.59
			c0.15-0.2,0.32-0.42,0.5-0.65c0.17-0.24,0.38-0.47,0.62-0.71c0.24-0.23,0.47-0.51,0.76-0.74c0.29-0.24,0.59-0.49,0.9-0.74
			c0.33-0.24,0.68-0.47,1.04-0.72c0.35-0.26,0.75-0.46,1.15-0.7c0.4-0.23,0.81-0.46,1.26-0.65c0.44-0.2,0.89-0.42,1.35-0.61
			c0.47-0.17,0.95-0.35,1.43-0.53c0.48-0.19,0.99-0.31,1.49-0.46c0.51-0.13,1.01-0.31,1.53-0.4c1.03-0.22,2.07-0.47,3.11-0.59
			c0.52-0.07,1.03-0.16,1.54-0.22c0.51-0.04,1.02-0.08,1.52-0.12c0.5-0.03,0.99-0.1,1.47-0.1c0.48,0,0.95-0.01,1.41-0.01
			c0.46,0,0.9,0,1.34,0.01c0.43,0.03,0.84,0.06,1.24,0.09c0.79,0.08,1.53,0.11,2.17,0.21c0.63,0.1,1.19,0.19,1.65,0.27
			c0.46,0.04,0.79,0.26,0.99,0.52c0.1,0.12,0.17,0.24,0.22,0.33c0.04,0.1,0.07,0.15,0.07,0.15s-0.04,0.04-0.13,0.13
			c-0.08,0.07-0.2,0.17-0.33,0.26c-0.29,0.19-0.66,0.32-1.1,0.23c-0.44-0.04-0.98-0.11-1.6-0.17c-0.62-0.06-1.32-0.09-2.08-0.14
			c-0.38-0.03-0.78-0.06-1.19-0.1c-0.41-0.01-0.84-0.03-1.27-0.04c-0.88-0.03-1.8-0.09-2.75-0.05c-0.48,0-0.97,0.01-1.46,0.02
			c-0.49,0.03-0.98,0.08-1.48,0.11c-1,0.05-2,0.22-3,0.37c-0.51,0.06-0.99,0.2-1.49,0.3c-0.49,0.12-0.99,0.2-1.46,0.36
			c-0.47,0.14-0.94,0.28-1.41,0.42c-0.46,0.16-0.9,0.34-1.34,0.5c-0.45,0.16-0.85,0.36-1.26,0.55c-0.41,0.2-0.82,0.36-1.17,0.58
			c-0.36,0.21-0.73,0.41-1.07,0.62c-0.32,0.23-0.64,0.44-0.94,0.65c-0.31,0.2-0.54,0.45-0.81,0.65c-0.26,0.21-0.49,0.41-0.69,0.63
			c-0.2,0.21-0.39,0.41-0.56,0.59c-0.15,0.2-0.29,0.38-0.4,0.54c-0.27,0.32-0.39,0.62-0.5,0.81
			C984.41,491.44,984.36,491.54,984.36,491.54z"/>
		<path class="st3" d="M858.56,557.52c-6.4,6.72-13.88,6.12-23.6,10.43C842.37,560.81,851.95,561.43,858.56,557.52z"/>
		<path class="st3" d="M860.88,607.13c-6.4,6.72-7.72,3.84-17.44,8.15C850.85,608.14,854.27,611.03,860.88,607.13z"/>
		<path class="st3" d="M852.51,588.01c-8.7,1.32-7.67-2.51-17.39,1.79C842.54,582.66,846,586.38,852.51,588.01z"/>
		<path class="st3" d="M863.59,507.87c-11.39,4.65-24.54,8-27.91,9.24C843.09,509.97,860.57,507.84,863.59,507.87z"/>
		<path class="st3" d="M830.18,538.71c9.79,4.5,10.95-0.62,27.34,1.9C841.89,534.65,842.35,540.03,830.18,538.71z"/>
		<path class="st3" d="M832.23,486.72c9.79,4.5,17.05-2.35,33.44,0.16C850.04,480.93,844.4,488.04,832.23,486.72z"/>
		<path class="st3" d="M946.77,648.58c0,0-0.29-0.31-0.8-0.84c-0.52-0.52-1.25-1.26-2.14-2.15c-0.45-0.44-0.91-0.95-1.39-1.5
			c-0.49-0.55-0.94-1.19-1.34-1.91c-0.41-0.72-0.68-1.55-0.79-2.4c-0.13-0.86-0.04-1.74,0.16-2.57c0.11-0.42,0.23-0.79,0.34-1.17
			c0.12-0.38,0.24-0.76,0.34-1.12c0.22-0.73,0.41-1.47,0.62-2.19c0.22-0.71,0.42-1.4,0.61-2.06c0.22-0.65,0.41-1.27,0.61-1.84
			c0.21-0.57,0.4-1.09,0.59-1.54c0.19-0.45,0.35-0.85,0.52-1.17c0.32-0.64,0.52-0.99,0.52-0.99s-0.08,0.39-0.21,1.07
			c-0.08,0.33-0.13,0.76-0.22,1.23c-0.1,0.47-0.17,1-0.26,1.59c-0.11,0.58-0.2,1.22-0.3,1.88c-0.12,0.67-0.24,1.37-0.36,2.1
			c-0.12,0.73-0.28,1.48-0.44,2.26c-0.08,0.39-0.17,0.77-0.26,1.15c-0.1,0.38-0.2,0.78-0.27,1.12c-0.15,0.71-0.2,1.41-0.13,2.09
			c0.06,0.68,0.29,1.33,0.55,1.96c0.27,0.63,0.65,1.22,1.01,1.8c0.36,0.58,0.76,1.11,1.09,1.63c0.69,1.02,1.22,1.91,1.53,2.56
			C946.64,648.2,946.77,648.58,946.77,648.58z"/>
		<path class="st3" d="M954.34,643.73c0,0-0.04-0.45-0.07-1.23c-0.02-0.78-0.05-1.89-0.02-3.21c0.01-1.32,0.04-2.85,0.08-4.48
			c0.01-0.81,0.02-1.65,0.04-2.5c0-0.85,0-1.71-0.02-2.57c-0.02-0.86-0.06-1.71-0.12-2.55c-0.02-0.42-0.07-0.83-0.11-1.24
			c-0.03-0.41-0.08-0.81-0.14-1.21c-0.1-0.79-0.25-1.55-0.39-2.27c-0.08-0.36-0.16-0.71-0.24-1.04l-0.01-0.03l0-0.02
			c0-0.01,0.03,0.06,0.02,0.03l-0.01-0.01l-0.02-0.06l-0.04-0.13l-0.08-0.25c-0.05-0.17-0.11-0.33-0.16-0.49
			c-0.09-0.33-0.22-0.6-0.33-0.87c-0.11-0.27-0.2-0.53-0.32-0.77c-0.24-0.49-0.46-0.92-0.62-1.27c-0.38-0.7-0.58-1.11-0.58-1.11
			s0.37,0.31,0.99,0.88c0.31,0.29,0.65,0.66,1.05,1.09c0.19,0.22,0.38,0.48,0.59,0.74c0.21,0.27,0.42,0.56,0.57,0.85
			c0.09,0.15,0.18,0.3,0.27,0.45l0.14,0.23l0.07,0.12l0.04,0.06l0.04,0.1c0.15,0.34,0.31,0.7,0.47,1.07
			c0.28,0.74,0.56,1.54,0.76,2.37c0.12,0.42,0.2,0.85,0.27,1.28c0.09,0.43,0.16,0.87,0.2,1.32c0.13,0.89,0.17,1.79,0.2,2.69
			c0.02,0.9,0,1.8-0.05,2.68c-0.06,0.88-0.14,1.74-0.25,2.57c-0.11,0.83-0.25,1.63-0.39,2.38c-0.14,0.75-0.31,1.46-0.47,2.11
			c-0.32,1.3-0.66,2.37-0.9,3.12C954.51,643.3,954.34,643.73,954.34,643.73z"/>
		<path class="st3" d="M953.21,607.41c0,0-0.07-0.51-0.17-1.4c-0.03-0.45-0.13-0.98-0.22-1.59c-0.08-0.61-0.21-1.29-0.34-2.04
			c-0.12-0.75-0.3-1.56-0.44-2.42c-0.17-0.86-0.36-1.76-0.51-2.71c-0.17-0.94-0.36-1.92-0.49-2.92c-0.08-0.5-0.12-1.01-0.18-1.52
			l-0.09-0.77l-0.05-0.79c-0.02-0.51-0.03-1.02-0.05-1.52c0.02-0.52,0.03-1.04,0.05-1.55c0-0.52,0.06-1.02,0.12-1.51
			c0.06-0.49,0.1-0.99,0.17-1.46c0.14-0.95,0.29-1.88,0.47-2.74c0.16-0.87,0.34-1.68,0.52-2.43c0.33-1.5,0.67-2.74,0.88-3.61
			c0.22-0.87,0.37-1.37,0.37-1.37s0.01,0.51,0,1.41c0,0.9-0.06,2.17-0.18,3.69c-0.12,1.51-0.27,3.28-0.42,5.17
			c-0.06,0.93-0.1,1.92-0.12,2.88c-0.01,0.49-0.01,0.97-0.02,1.46c0.02,0.51,0.05,1.01,0.08,1.52l0.02,0.73l0.07,0.75
			c0.05,0.5,0.08,0.99,0.14,1.49c0.11,0.99,0.21,1.96,0.31,2.91c0.11,0.94,0.19,1.87,0.27,2.74c0.07,0.88,0.12,1.7,0.13,2.48
			c0.01,0.38,0.02,0.75,0.02,1.1c-0.01,0.35-0.03,0.69-0.04,1c-0.02,0.63-0.05,1.17-0.12,1.61
			C953.29,606.9,953.21,607.41,953.21,607.41z"/>
		<path class="st3" d="M958.66,606.01c0,0,0.07-0.44,0.23-1.18c0.09-0.37,0.18-0.83,0.28-1.34c0.1-0.51,0.22-1.08,0.33-1.71
			c0.05-0.31,0.11-0.64,0.17-0.98c0.05-0.34,0.1-0.69,0.15-1.05c0.12-0.71,0.17-1.47,0.27-2.25c0.04-0.78,0.13-1.58,0.15-2.4
			c0.05-0.82,0.04-1.65,0.04-2.48c-0.03-0.83-0.04-1.66-0.1-2.48c-0.03-0.82-0.12-1.63-0.18-2.42c-0.09-0.78-0.14-1.55-0.25-2.27
			c-0.08-0.72-0.15-1.41-0.23-2.05c-0.16-1.28-0.29-2.35-0.37-3.1c-0.09-0.75-0.11-1.19-0.11-1.19s0.23,0.39,0.59,1.08
			c0.18,0.35,0.4,0.77,0.61,1.27c0.22,0.49,0.48,1.05,0.69,1.67c0.12,0.31,0.23,0.64,0.36,0.97c0.11,0.34,0.22,0.69,0.33,1.05
			c0.23,0.72,0.4,1.5,0.59,2.31c0.15,0.81,0.33,1.65,0.4,2.51c0.12,0.86,0.14,1.74,0.18,2.62c-0.02,0.88-0.02,1.76-0.13,2.63
			c-0.06,0.87-0.23,1.71-0.37,2.53c-0.2,0.81-0.37,1.59-0.63,2.32c-0.12,0.36-0.23,0.72-0.36,1.05c-0.14,0.33-0.28,0.65-0.41,0.96
			c-0.24,0.62-0.55,1.17-0.81,1.65c-0.24,0.49-0.5,0.9-0.72,1.22C958.93,605.64,958.66,606.01,958.66,606.01z"/>
		<path class="st3" d="M970.32,550.54c0,0,0.07-0.34,0.23-0.94c0.09-0.29,0.14-0.66,0.24-1.06c0.1-0.4,0.16-0.86,0.26-1.37
			c0.1-0.5,0.14-1.05,0.24-1.62c0.07-0.57,0.12-1.18,0.18-1.8c0.04-0.63,0.09-1.27,0.1-1.94c0.04-0.66,0.02-1.32,0.03-1.99
			c-0.03-0.67-0.03-1.34-0.08-2c-0.03-0.66-0.09-1.3-0.14-1.93c-0.06-0.63-0.13-1.24-0.2-1.81c-0.1-0.57-0.15-1.12-0.26-1.62
			c-0.09-0.5-0.17-0.97-0.26-1.37c-0.09-0.41-0.14-0.77-0.23-1.06c-0.15-0.59-0.21-0.94-0.21-0.94s0.22,0.29,0.57,0.82
			c0.18,0.27,0.36,0.6,0.56,0.99c0.21,0.38,0.42,0.83,0.62,1.33c0.23,0.49,0.4,1.04,0.59,1.62c0.17,0.58,0.35,1.2,0.48,1.85
			c0.12,0.65,0.25,1.32,0.31,2.01c0.09,0.69,0.1,1.39,0.13,2.09c-0.02,0.7-0.01,1.41-0.09,2.1c-0.05,0.69-0.16,1.36-0.27,2.01
			c-0.12,0.65-0.29,1.28-0.45,1.86c-0.18,0.58-0.35,1.14-0.58,1.63c-0.2,0.5-0.4,0.95-0.62,1.33c-0.2,0.39-0.39,0.73-0.58,0.99
			C970.54,550.25,970.32,550.54,970.32,550.54z"/>
		<path class="st3" d="M962.13,554.82c0,0,0.12-0.56,0.32-1.55c0.11-0.49,0.24-1.09,0.32-1.77c0.05-0.34,0.1-0.71,0.16-1.09
			c0.06-0.38,0.12-0.78,0.16-1.21c0.08-0.85,0.22-1.75,0.25-2.73c0.05-0.97,0.1-1.99,0.11-3.04c0.01-0.53,0.03-1.07,0.02-1.61
			c-0.01-0.54-0.02-1.09-0.03-1.65c0-1.11-0.1-2.24-0.15-3.36c-0.12-1.12-0.18-2.24-0.34-3.34c-0.07-0.55-0.14-1.09-0.21-1.63
			c-0.08-0.53-0.17-1.07-0.25-1.59c-0.07-0.52-0.17-1.03-0.27-1.53c-0.1-0.5-0.16-0.99-0.26-1.46c-0.21-0.94-0.32-1.84-0.52-2.65
			c-0.08-0.41-0.16-0.8-0.23-1.18c-0.08-0.37-0.16-0.72-0.24-1.05c-0.12-0.67-0.29-1.22-0.4-1.69c-0.05-0.24-0.15-0.43-0.16-0.61
			c0-0.19,0.12-0.39,0.27-0.57c0.17-0.19,0.35-0.35,0.51-0.48c0.16-0.12,0.28-0.21,0.27-0.2c0,0,0.15-0.01,0.35,0
			c0.22,0,0.47,0.03,0.74,0.1c0.25,0.07,0.49,0.18,0.63,0.36c0.13,0.18,0.21,0.41,0.3,0.66c0.18,0.49,0.44,1.1,0.65,1.79
			c0.22,0.69,0.44,1.48,0.64,2.33c0.4,1.72,0.71,3.74,0.84,5.91c0.04,0.54,0.08,1.09,0.11,1.65c0.02,0.56,0.04,1.12,0.05,1.69
			c0.06,1.14,0.01,2.3,0.01,3.45c-0.06,1.16-0.06,2.31-0.17,3.45c-0.05,0.57-0.1,1.13-0.14,1.68c-0.06,0.55-0.14,1.1-0.21,1.64
			c-0.11,1.08-0.34,2.11-0.52,3.08c-0.17,0.98-0.45,1.89-0.64,2.74c-0.18,0.84-0.49,1.6-0.69,2.28c-0.21,0.68-0.44,1.25-0.64,1.72
			C962.36,554.28,962.13,554.82,962.13,554.82z"/>
		<path class="st3" d="M955.3,563.38c0,0-0.21-0.29-0.54-0.82c-0.32-0.53-0.73-1.32-1.13-2.3c-0.18-0.49-0.41-1.02-0.58-1.59
			c-0.18-0.57-0.37-1.17-0.52-1.8c-0.33-1.25-0.58-2.61-0.78-3.97c-0.1-0.68-0.18-1.36-0.25-2.03c-0.08-0.67-0.1-1.33-0.15-1.97
			c-0.06-1.28-0.07-2.48-0.03-3.5c0.03-1.03,0.11-1.88,0.18-2.48c0.08-0.6,0.13-0.93,0.13-0.93s0.05,0.34,0.12,0.93
			c0.08,0.59,0.17,1.44,0.29,2.45c0.12,1.01,0.26,2.19,0.41,3.46c0.17,1.26,0.32,2.61,0.53,3.94c0.08,0.67,0.2,1.34,0.29,2
			c0.13,0.65,0.2,1.31,0.33,1.93c0.11,0.63,0.23,1.23,0.35,1.8c0.11,0.57,0.25,1.1,0.35,1.6c0.14,0.49,0.24,0.95,0.35,1.35
			c0.13,0.39,0.22,0.75,0.32,1.03C955.19,563.05,955.3,563.38,955.3,563.38z"/>
		<path class="st3" d="M961.92,494.49c0,0-0.09-0.44-0.22-1.2c-0.06-0.38-0.13-0.84-0.24-1.37c-0.11-0.53-0.2-1.12-0.34-1.76
			c-0.13-0.64-0.28-1.34-0.45-2.07c-0.16-0.73-0.39-1.49-0.59-2.27c-0.24-0.78-0.48-1.58-0.78-2.37c-0.28-0.8-0.63-1.59-0.98-2.38
			c-0.39-0.77-0.76-1.55-1.21-2.28c-0.21-0.37-0.43-0.73-0.67-1.08c-0.24-0.35-0.45-0.7-0.69-1.04c-0.49-0.66-0.92-1.32-1.4-1.91
			c-0.43-0.62-0.9-1.17-1.3-1.7c-0.4-0.53-0.82-0.99-1.15-1.42c-0.17-0.21-0.33-0.42-0.49-0.59c-0.16-0.18-0.3-0.35-0.37-0.54
			c-0.35-0.73-0.04-1.57-0.04-1.57s0.97-0.19,1.8,0.22c0.43,0.2,0.76,0.57,1.21,0.97c0.43,0.41,0.94,0.85,1.41,1.39
			c0.5,0.52,1.01,1.11,1.51,1.76c0.51,0.64,0.98,1.37,1.45,2.12c0.24,0.37,0.43,0.78,0.65,1.17c0.11,0.2,0.21,0.4,0.32,0.6
			c0.1,0.21,0.19,0.42,0.29,0.63c0.4,0.83,0.72,1.7,1.04,2.56c0.27,0.87,0.55,1.74,0.75,2.62c0.05,0.22,0.1,0.43,0.16,0.65
			c0.04,0.22,0.07,0.43,0.11,0.65c0.07,0.43,0.16,0.85,0.21,1.27c0.11,0.83,0.2,1.64,0.23,2.4c0.06,0.76,0.06,1.49,0.06,2.15
			c0.02,0.66-0.04,1.27-0.06,1.81c-0.02,0.54-0.06,1-0.09,1.39C961.98,494.05,961.92,494.49,961.92,494.49z"/>
		<path class="st3" d="M955.05,507.14c0,0-0.06-0.09-0.17-0.26c-0.1-0.17-0.27-0.42-0.42-0.77c-0.17-0.34-0.35-0.76-0.52-1.25
			c-0.17-0.49-0.35-1.05-0.5-1.66c-0.16-0.61-0.32-1.27-0.45-1.98c-0.13-0.7-0.27-1.45-0.37-2.22c-0.1-0.77-0.23-1.57-0.3-2.38
			c-0.08-0.81-0.16-1.64-0.23-2.46c-0.06-0.83-0.12-1.65-0.16-2.46c-0.05-0.81-0.05-1.61-0.08-2.39c-0.04-1.55-0.04-2.99-0.01-4.23
			c0.02-1.24,0.08-2.28,0.14-3c0.05-0.73,0.1-1.14,0.1-1.14s0.12,0.41,0.27,1.12c0.16,0.72,0.38,1.74,0.57,2.97
			c0.22,1.23,0.42,2.66,0.58,4.2c0.08,0.77,0.19,1.56,0.26,2.37c0.07,0.81,0.13,1.63,0.21,2.45c0.06,0.82,0.11,1.64,0.17,2.45
			c0.06,0.81,0.08,1.6,0.14,2.37c0.09,1.53,0.17,2.97,0.24,4.19c0.04,0.61,0.09,1.17,0.14,1.67c0.06,0.49,0.1,0.93,0.17,1.28
			c0.05,0.35,0.12,0.64,0.16,0.83C955.03,507.03,955.05,507.14,955.05,507.14z"/>
	</g>
</g>
</svg>
